<?xml version="1.0" encoding="UTF-8"?>
<svg id="Layer_1" xmlns="http://www.w3.org/2000/svg" version="1.1" viewBox="0 0 276.91 1">
  <!-- Generator: Adobe Illustrator 29.3.1, SVG Export Plug-In . SVG Version: 2.1.0 Build 151)  -->
  <defs>
    <style>
      .st0 {
        fill: #060203;
      }
    </style>
  </defs>
  <path class="st0" d="M166.45.96h2.03c-.86-.08-1.42-.11-2.03,0M160.35.92h2.46c-1.07-.1-1.76-.1-2.46,0M96.05.4c2.5-.08,4.97-.2,7.45-.3-.01-.02-.03-.03-.04-.05h-19.75s-.02.03-.04.04c.51.02,1.04.06,1.53.05,1.46-.03,2.86,0,4.26.08,1.15.06,2.32.11,3.51.14,1.02.03,2.1.07,3.08.04M186.09.67c-.45.14-1.16.17-2.2.08.51-.13.93-.24,1.34-.35.91.06,1.26.15.86.27M164.49.27c-.22.06-.36.16-.66.18-.69.05-1.17-.02-1.38-.14.55-.13,1.18-.12,2.03-.03M150.84.39c-.11.07-.48.15-.84.18-1.01.07-1.83,0-2.65-.2.96-.05,1.62-.1,2.31-.13.58-.02,1.32.07,1.19.15M34.49.66c-.25.02-.5.06-.75.06-.16,0-.48-.06-.45-.08.11-.04.35-.07.67-.13.25.07.39.11.54.15M30.01.63c-1.83.24-4.08.3-6.82.17.99-.45,3.53-.52,6.82-.17M9.13.39c-1.24.21-1.26.21-2.5,0,.85-.11,1.62-.13,2.5,0M2.18.48s-.25.06-.39.09c-.19-.03-.38-.06-.71-.11.33-.05.53-.07.73-.1.13.04.34.08.37.13M192.96.4c.47-.06.92-.16.53-.25-.28-.07-.92-.1-1.43-.11-.54-.02-1.12,0-1.68,0-3.62,0-7.23,0-10.85,0-1.62,0-3.2,0-4.6.18-1.48-.17-3.06-.18-4.69-.18-14.31,0-28.62,0-42.93,0-.48,0-.96,0-1.45,0-1,0-1.92.03-2.68.15-1.02.16-2.06.14-3.06,0-1.03-.14-2.19-.16-3.42-.16-1.77,0-3.54,0-5.31,0-.45,0-.9.01-1.66.03,1.21.21,2.31.34,3.58.43.28.02.46.09.81.16-1.94.09-3.6.1-5.13-.06-.82-.09-1.6-.1-2.52-.09-2.5.02-4.96.07-7.37.2-2.13.11-4.25.13-6.4-.01-.81-.05-1.73-.06-2.6-.09-3.22-.11-6.48-.2-9.49-.46-.83-.07-1.86-.09-2.8-.09-3.29-.01-6.59-.01-9.89,0-.94,0-1.92.04-2.8.09-.82.05-1.52.04-2.32,0-.91-.05-1.91-.11-2.8-.08-1.85.05-3.65,0-5.48,0-4.58-.02-9.16-.01-13.75,0-.92,0-1.96.04-2.74.12-1.46.15-2.8.15-4.35.05-1.4-.1-2.88-.24-4.42-.17-2.33.1-4.59.06-6.88,0-.31,0-.64,0-.96,0-4.25.02-8.51.04-12.77.05-.84,0-1.59.03-2.21.13-.68.11-1.47.14-2.17.03C3.03.04,1.53.02,0,0v.94c1.46,0,2.89,0,4.22-.13.61-.06,1.23-.05,1.84.01,2.02.19,4.04.13,6.06,0,.75-.05,1.47-.11,2.22-.16,1.99-.14,3.94-.14,5.73.09,1.03.13,2.14.2,3.38.19,2.89,0,5.79.05,8.66-.06.46-.02.96-.01,1.43,0,3.68.11,7.38.05,11.07.05,1.27,0,2.32-.1,3.17-.27.3-.06.58-.12.93-.2.59.07,1.18.11,1.44.18.24.07.11.18.15.29h2.71c3.38,0,6.76-.02,10.13,0,3.43.03,6.81-.16,10.29-.02,1.75.07,2.13-.07,1.5-.4-.04-.02.08-.05.13-.07q1.67.05,2.08.47c.97,0,2,.02,3.02.02,13.59,0,27.17,0,40.76,0,.8,0,1.62,0,2.41-.01.61-.01,1.29-.05,1.78-.11,3.53-.46,7.45-.46,11.52-.34,1,.03,1.73.12,2.36.3-1.45-.04-2.68-.08-3.91-.1-1.19-.02-2.43-.05-3.58-.01-1.15.04-2.21.16-3.63.27,4.7,0,9.04,0,13.37,0,.86,0,1.71-.07,2.58-.09.61-.02,1.34-.06,1.84-.03,2.17.16,4.42.12,6.66.13,1.58,0,3.01-.06,4.29-.23,1.71-.22,3.56-.31,5.67-.19,1.11.06,2.17.05,3.19-.08,1.27-.17,2.67-.17,4.11-.05,1.75.14,3.52.28,5.26.42,1.41.12,2.86.18,4.42.17,3.46,0,6.91,0,10.37,0,.7,0,1.41-.02,2.16-.03.33-.21.06-.43,1.16-.56M269.04.7c-.06.04-.7.1-.88.09-.68-.06-.63-.17-.3-.3.87.02,1.38.08,1.18.22M260.32.41c-.34.18-.98.13-1.46.11-1.04-.04-1.9-.04-2.94.07-.97.1-2.31.08-3.5.1-.63.01-1.3.02-1.91,0-2.21-.07-4.29-.04-6.26.16-.5.05-1.09.06-1.48-.11,1.1-.1,2.05-.21,3.06-.28.56-.04,1.24-.06,1.85-.05,2.31.03,4.47-.05,6.45-.26.66-.07,1.34-.1,2.05-.05,1.39.1,2.76.21,4.14.32M241.7.42c-2.06.2-2.31.18-2.37-.14.69.04,1.3.07,2.37.14M202.91.6c-.22-.02-.5-.02-.61-.05-.22-.05-.34-.12-.52-.18q1.43-.03,1.13.23M273.78.37c-.78.13-1.48.15-2.36.06-.42-.04-.86-.08-1.23-.13-1.52-.22-3.24-.27-5.17-.27-13.5,0-27,0-40.51,0-1.46,0-2.88,0-4.17.16-.9.1-1.82.09-2.68-.03-.73-.1-1.59-.13-2.49-.13-5.3,0-10.61,0-15.91,0-.62,0-1.34.01-1.85.07-1.23.13-2.38.29-3.54.44-.47.06-.82.17-.51.26.25.07.77.15,1.25.17.68.03,1.44.02,2.16.02,6.75-.01,4.52.09,10.55-.44,1.01-.09,2.02-.17,3.05-.26.7-.06,1.48-.08,2.04.02.95.17,2.15.24,3.35.32.24.01.39.07.77.15-.65.02-1.04.04-1.38.03-1.09-.04-2.17-.1-3.25-.15-.45-.02-.93-.05-1.38-.04-.69.01-1.73.17-2.55.36,1.79,0,3.47,0,5.15,0,2.96,0,5.9.03,8.74-.21,1.51-.13,3.26-.13,4.75.1.43.07,1.17.08,1.79.1,1.52.05,2.8-.07,4.14-.22,2.02.28,4.39.23,6.71.23,11.73,0,23.47,0,35.2,0h2.18c-.21-.06-.42-.14-.41-.22.01-.13.44-.39.69-.24.02-.12-.27-.31-.85-.42-.24-.05-.61-.04-2.28.26Z"/>
</svg>