<?xml version="1.0" encoding="UTF-8"?>
<svg id="Layer_1" xmlns="http://www.w3.org/2000/svg" version="1.1" viewBox="0 0 541.22 1">
  <!-- Generator: Adobe Illustrator 29.3.1, SVG Export Plug-In . SVG Version: 2.1.0 Build 151)  -->
  <defs>
    <style>
      .st0 {
        fill: #060203;
      }
    </style>
  </defs>
  <path class="st0" d="M162.67.94h1.99c-.84-.08-1.39-.11-1.99,0M156.72.9h2.41c-1.05-.1-1.72-.09-2.41,0M93.87.39c2.45-.08,4.85-.2,7.28-.3-.01-.02-.03-.03-.04-.05h-19.3s-.02.03-.04.04c.5.02,1.01.06,1.5.05,1.43-.03,2.79,0,4.17.08,1.12.06,2.27.1,3.43.14.99.03,2.05.07,3.01.04M181.87.66c-.44.13-1.13.17-2.15.08.5-.13.91-.24,1.31-.34.89.06,1.23.14.84.26M160.76.27c-.22.06-.35.15-.64.17-.68.05-1.14-.02-1.35-.14.54-.13,1.15-.11,1.99-.03M147.41.38c-.11.07-.47.15-.83.17-.98.07-1.79,0-2.59-.19.94-.05,1.58-.1,2.25-.12.56-.02,1.29.07,1.17.14M33.71.65c-.25.02-.49.06-.74.06-.15,0-.47-.06-.44-.08.11-.04.34-.07.66-.13.25.07.38.11.52.15M29.33.62c-1.79.24-3.98.29-6.66.17.97-.44,3.45-.51,6.66-.17M8.92.38c-1.21.21-1.23.21-2.44,0,.84-.11,1.58-.13,2.44,0M2.13.47s-.25.06-.38.08c-.19-.03-.38-.06-.69-.11.33-.05.52-.07.71-.1.13.04.33.08.36.12M188.58.39c.46-.05.9-.15.52-.25-.27-.06-.9-.09-1.4-.11-.53-.02-1.09,0-1.65,0-3.53,0-7.07,0-10.61,0-1.58,0-3.13,0-4.5.18-1.45-.17-2.99-.18-4.58-.18-13.98,0-27.97,0-41.95,0-.47,0-.94,0-1.41,0-.97,0-1.88.03-2.62.15-.99.16-2.02.13-2.99,0-1.01-.13-2.14-.16-3.34-.16-1.73,0-3.46,0-5.19,0-.44,0-.88.01-1.62.03,1.18.21,2.25.33,3.5.42.28.02.45.09.79.16-1.9.09-3.52.1-5.01-.06-.8-.08-1.56-.1-2.46-.09-2.44.02-4.84.07-7.2.19-2.08.1-4.16.12-6.25-.01-.8-.05-1.69-.06-2.54-.09-3.15-.11-6.33-.2-9.27-.45-.81-.07-1.81-.09-2.73-.09-3.22-.01-6.44-.01-9.66,0-.92,0-1.87.04-2.74.09-.8.05-1.48.04-2.27,0-.89-.05-1.86-.1-2.74-.08-1.81.05-3.57,0-5.36,0-4.48-.02-8.96-.01-13.43,0-.9,0-1.91.04-2.68.12-1.43.15-2.73.15-4.25.05-1.37-.09-2.81-.23-4.32-.16-2.27.1-4.48.06-6.72,0-.31,0-.63,0-.94,0-4.16.02-8.32.04-12.48.05-.82,0-1.55.03-2.16.13-.66.11-1.44.13-2.12.03C2.96.04,1.49.02,0,0v.92c1.42,0,2.83,0,4.13-.12.59-.06,1.2-.05,1.8.01,1.97.19,3.95.13,5.92,0,.73-.05,1.44-.11,2.17-.16,1.94-.13,3.85-.14,5.6.09,1,.13,2.09.19,3.3.19,2.82,0,5.66.05,8.46-.06.44-.02.94-.01,1.39,0,3.59.11,7.21.05,10.82.05,1.24,0,2.27-.1,3.1-.26.3-.06.56-.12.91-.19.57.07,1.16.11,1.41.18.23.07.1.17.14.29h2.65c3.3,0,6.6-.02,9.9,0,3.36.03,6.66-.16,10.06-.02,1.71.07,2.08-.07,1.47-.39-.04-.02.08-.05.13-.07q1.63.05,2.04.46c.95,0,1.95.02,2.95.02,13.28,0,26.55,0,39.83,0,.78,0,1.58,0,2.35-.01.6-.01,1.26-.04,1.74-.11,3.45-.45,7.29-.45,11.26-.33.98.03,1.69.12,2.31.29-1.42-.04-2.61-.08-3.82-.1-1.16-.02-2.37-.05-3.5-.01-1.12.04-2.16.15-3.55.26,4.59,0,8.83,0,13.07,0,.84,0,1.67-.06,2.52-.09.6-.02,1.31-.06,1.8-.03,2.12.16,4.32.11,6.51.13,1.55,0,2.94-.06,4.2-.22,1.67-.22,3.48-.31,5.54-.19,1.08.06,2.13.05,3.12-.08,1.24-.16,2.61-.17,4.01-.05,1.71.14,3.44.27,5.14.41,1.37.12,2.79.17,4.32.17,3.38,0,6.76,0,10.13,0,.69,0,1.38-.02,2.11-.03.32-.2.06-.42,1.13-.54M305.66.15c-.28-.02-.55-.06-.82-.06-3.37,0-6.74,0-10.11,0-.27,0-.54.04-.86.06.12.06.14.1.28.13,1.01.2,2.32.26,3.62.14,1.36-.12,2.52-.11,3.75.03.19.02.43.03.66.04,1.88.11,2.58.04,3.5-.35M308.23.22c.12,0,.2-.04.3-.05-.11-.01-.26-.03-.34-.03-.12,0-.2.04-.31.06.12,0,.26.03.35.02M370.36.78c.12-.18.18-.27.25-.38,1.4.15,1.4.16-.25.38M349.92.72c-.34.11-.82.1-2.08,0,.46-.09.9-.18,1.31-.26.86.05,1.15.14.77.26M316.87.38c0,.17-.74.23-1.18.32-.73-.05-1-.14-.67-.23.4-.11,1.05-.14,1.85-.08M285.48.73c0-.11-.04-.16.01-.21.05-.05.19-.1.3-.15q1.23.16-.31.36M262.94.68c-.06.04-.68.1-.86.08-.66-.06-.62-.17-.3-.3.85.02,1.35.08,1.16.21M254.41.4c-.34.17-.96.13-1.43.11-1.02-.04-1.86-.04-2.88.06-.95.09-2.26.08-3.42.1-.62.01-1.27.02-1.87,0-2.16-.07-4.19-.04-6.12.16-.49.05-1.06.06-1.44-.11,1.07-.1,2-.2,2.99-.28.54-.04,1.21-.05,1.81-.05,2.25.03,4.37-.04,6.3-.25.65-.07,1.31-.1,2.01-.05,1.36.1,2.7.21,4.04.31M236.21.41c-2.01.2-2.26.18-2.32-.13.67.04,1.27.07,2.32.13M198.31.59c-.21-.02-.49-.02-.59-.05-.21-.05-.33-.11-.51-.18q1.4-.03,1.1.23M379.8.36c.58-.03,1.16-.05,1.89-.09-.69-.21-1.69-.19-2.57-.19-5.57,0-11.15-.05-16.71.07-1.68.04-3.18.1-4.57.28-1.47.2-1.87.19-3.35,0-.89-.11-1.77-.21-2.89-.26-3.58-.17-7.16-.06-10.74-.08-.28.16-.33.3-1.33.34-1.45.05-2.87.13-4.32.19-1.33.05-2.61.04-3.57-.18.78-.27,2.55-.12,3.77-.32-1.67-.05-3.06-.04-4.43-.03-1.16.01-2.31.08-3.47.08-1.23,0-2.46-.08-3.7-.08-2.51-.01-5.03,0-7.54,0-1.69,0-3.25.06-4.77.19-1.97.17-4,.32-6.01.48-1.19.09-2.41.15-3.63.03-1.56-.14-3.14-.14-4.79-.07-1.82.08-3.41,0-4.76-.24-.62-.1-1.25-.21-1.94-.3-.11-.01-.23-.03-.34-.03,0,0,.01-.01.02-.01-.4-.02-.63-.04-.85-.04-3.06,0-6.13,0-9.19,0-.54,0-1.17,0-1.6.05-1.03.11-1.88.06-2.88-.01-2.3-.17-6.12-.05-7.95.25-.77.12-1.45.15-2.31.06-.41-.04-.85-.08-1.21-.13-1.48-.21-3.17-.27-5.05-.27-13.2,0-26.39,0-39.59,0-1.43,0-2.82,0-4.07.15-.88.1-1.78.09-2.62-.03-.71-.1-1.55-.13-2.44-.13-5.18,0-10.37,0-15.55,0-.61,0-1.31.01-1.81.07-1.2.13-2.33.28-3.46.43-.46.06-.8.16-.5.25.24.07.76.14,1.22.16.67.03,1.4.02,2.11.02,6.6-.01,4.42.08,10.31-.43.99-.09,1.98-.17,2.98-.25.68-.06,1.45-.08,2,.02.93.16,2.1.23,3.27.31.23.01.38.07.76.14-.64.02-1.02.04-1.35.03-1.07-.04-2.12-.1-3.18-.15-.44-.02-.91-.05-1.34-.04-.67.01-1.69.17-2.49.36,1.75,0,3.39,0,5.03,0,2.89,0,5.77.03,8.54-.2,1.48-.13,3.19-.13,4.64.1.42.07,1.14.08,1.75.1,1.48.05,2.73-.07,4.05-.22,1.97.28,4.29.22,6.56.22,11.47,0,22.93,0,34.4,0,2.12,0,4.25.02,6.26-.13.35-.03.77-.02,1.16-.03,1.15-.04,2.31-.07,3.43-.13,1.04-.05,1.97-.07,2.93.03,1.94.21,4.07.28,6.33.26,1.02,0,2.03,0,3.05,0,.3.01.62.02.97.02,9.11-.02,18.22,0,27.33-.01.62,0,1.27,0,1.86-.04.91-.05,1.15-.19.62-.32-.42-.11-1.2-.18-1.23-.36,1.16-.07,2,.05,2.87.12,1.33.1,1.72.34,2.3.59,3.03-.01,6.08.09,9.07-.08.76-.04,1.47-.06,2.28,0,2.37.16,4.73.15,7.11-.07,1.16.16,2.56.17,3.99.17,2.2,0,4.4,0,6.6,0,1,0,2.03-.04,2.96-.1.87-.06,1.63-.09,2.45,0,.86.1,1.72.08,2.7.03,1.26-.06,2.59-.09,3.9-.12.36,0,.8.01,1.11.05,2.03.23,4.26.14,6.43.13.44,0,1.02-.08,1.26-.15.88-.26,2.29-.37,3.82-.44M527.57.5c-.14.19-.77.25-1.48.26-.65.02-1.01-.07-1.1-.17-.09-.11.35-.15.85-.15.58,0,1.16.04,1.73.06M511.18.61c-.75.04-1.23-.05-1.59-.27h2.25c.36.15,0,.24-.66.27M469.17.65c.07.04-.27.13-.55.15-.27.02-.73,0-1.01-.02-.15-.02-.2-.1-.12-.14.11-.06.37-.11.71-.21.42.09.82.15.97.22M453.51.66c-.13-.18.7-.2,1.44-.31.3.32.28.32-1.44.31M417.81.47c-.2.06-.33.14-.62.17-.18.02-.6-.03-.92-.05.12-.04.2-.1.39-.12.21-.03.53-.04.8-.06.12.02.23.04.35.06M541.22.1c-.14,0-.28,0-.41,0-13.36,0-26.72,0-40.07,0-.77,0-1.68,0-2.3.06-1.16.12-2.09.06-3.09-.03-.94-.08-1.92-.12-2.96-.09-.2,0-.35.05-.59.08.41.09.78.17,1.38.29-.74,0-1.25.04-1.57,0-1.34-.12-2.67-.12-4.12-.07-.79.02-1.91.02-2.46-.07-1.22-.18-2.56-.19-3.98-.19-9.74,0-19.49,0-29.23,0-1.16,0-2.32.05-3.48.07-.45,0-.95.01-1.37-.01-1.79-.1-3.57-.07-5.36-.02-.69.02-1.44.06-2.08.03-2.88-.13-5.79-.06-8.68-.07-.62,0,.17.02-.42.05-2.71.14-5.5.11-8.13.01-2.95-.11-5.6-.02-8.28.16-.53.03-1.04.08-1.05.2,0,.2-.73.26-1.69.27-2.82.02-5.65.04-8.47.04-1.68,0-2.96-.14-3.83-.45.61-.03,1.1-.08,1.59-.08.53,0,1.06.04,1.59.07,2.06.11,4.16.14,6.29.12,1.38-.02,1.5-.04,1.78-.35-.62-.01-1.23-.03-1.84-.03-6.21,0-12.41,0-18.62,0-1.37,0-2.57.06-3.79.19-1.89.19-3.75.4-6.14.36-.89-.02-1.84.05-2.21.26.72.12,1.51.09,2.25.06.83-.04,1.64-.09,2.44-.15,1.09-.08,2.16-.09,3.17.02,1.31.14,2.67.15,4.09.08,1.56-.08,3.09-.05,4.66,0,1.46.05,2.95.08,4.44.08,5.89.01,11.79,0,17.68,0h2.22q1-.33,2.81-.44c.74-.04,1.48-.1,2.25-.12,1.96-.06,3.7,0,5.19.32-.53.04-.91.1-1.31.1-.53,0-1.08-.02-1.62-.04-1.67-.05-3.32-.05-5.11.03.7.17,1.54.15,2.3.15,2.12,0,4.25-.01,6.36,0,2.27.02,3-.08,4.95-.25,2.49-.22,5.11-.27,7.75-.32,1.83-.03,3.43.1,4.66.37-1.53-.03-3-.16-4.56-.08-1.55.08-3.31-.01-4.75.25.76,0,1.52.02,2.27.02,2.91,0,5.82-.02,8.72,0,4.3.04,8.4-.11,12.47-.31.75-.04,1.41-.04,1.95.06,1.11.22,2.53.26,4.08.25.86,0,1.73,0,2.59,0,1.68.01,3.29-.01,4.71-.2.86-.11,1.77-.11,2.58.02.94.15,2.07.18,3.28.18,2.67,0,5.34,0,8.01,0,.63,0,1.28,0,1.87-.03,1.56-.08,3.1-.05,4.67-.02.83.02,1.76.02,2.52-.03,1.12-.07,2.12-.07,3.19,0,1.91.12,3.87.13,5.79.02,1.57-.08,3.04-.08,4.62,0,.95.05,2.17.09,2.97.02,1.37-.11,2.63-.13,4.04-.08.67.02,1.46-.02,2.04.03,1.13.09,2.28.1,3.45.1,5.66,0,11.32,0,16.97,0,.31,0,.62-.01.93-.02v-.21c-.91.06-1.72.04-2.82-.11-.89-.12-1.74-.24-2.85-.28-.31-.01-.59-.05-1.32-.1,2.46-.06,3.91.43,6.19.34l.79-.51Z"/>
</svg>